<svg version="1.2" xmlns="http://www.w3.org/2000/svg" viewBox="0 0 1200 717" width="1200" height="717"><style>.a{fill:#10b981}.b{fill:#fff}</style><path class="a" d="m153.5 178.3l-153.5 174.2c8.3 9.3 10.9 12.5 11.1 13.2 0.2 0.6 69.5 79.3 153.9 174.8 145.3 164.3 153.6 173.5 155.2 171.8 0.9-1 8.2-9 16.2-17.8l14.6-16c-3.6-3.9-68-76.7-145.3-164.3-77.4-87.5-140.9-159.8-141.2-160.5-0.3-0.6 59.7-69.5 136.2-156.3 75.3-85.3 137.3-155.7 138-156.5 0.9-1.1-0.7-3.5-8.9-12.4-5.6-6-13-14-16.5-17.7l-6.3-6.7zm703.2-156.6c-16.4 17.5-16.6 17.8-14.8 19.8 1 1.1 67.3 74.3 147.4 162.7l145.7 160.8c-218.9 241.9-282.6 312.6-282.8 313.1-0.1 0.5 2.4 3.7 5.5 7.1 3.2 3.5 10.6 11.4 16.5 17.5l10.8 11.3 315.1-348.5c-9.4-9.3-11.9-12.2-11.6-12.5 0.3-0.3-70-78.4-156.1-173.5-86.2-95.2-157.2-173.6-157.8-174.3-0.9-1.1-4.6 2.3-17.9 16.5zm-14.2 90c-1.6 5.9-3 11.7-3.1 12.8 0 1.1-1.2 6.3-2.6 11.5-1.4 5.2-3.6 13.5-4.8 18.5-1.3 4.9-2.6 11-3 13.5-0.4 2.5-1.8 8.1-3 12.5-1.3 4.4-2.4 9.1-2.5 10.5-0.2 1.4-1.2 5.9-2.4 10-1.2 4.1-2.6 9.5-3 12-0.5 2.5-1.8 8.5-3.1 13.5-1.2 4.9-3.5 14.2-5.1 20.5-1.5 6.3-4 16.3-5.4 22.2-1.4 6-3.6 15.4-4.9 21-1.4 5.7-3.6 15-5.1 20.8-1.4 5.8-2.8 11.8-3.1 13.5-0.3 1.6-1.5 6.8-2.8 11.5-1.3 4.7-2.8 10.7-3.3 13.5-0.6 2.7-1.8 8.1-2.8 12-1 3.8-2.8 11-4.1 16-1.3 4.9-2.6 10.3-2.8 12-0.2 1.6-1.6 7.7-3.1 13.5-1.5 5.8-3.8 15-5.2 20.5-1.4 5.5-2.7 11.1-2.8 12.5-0.2 1.4-1.3 5.9-2.4 10-1.1 4.1-2.3 8.8-2.6 10.5-0.2 1.6-1.6 7.7-3.1 13.5-1.4 5.8-3.7 14.7-5 19.7-1.3 5.1-2.4 10.1-2.4 11 0 1-1.3 6.3-2.9 11.8-1.6 5.5-2.8 10.7-2.8 11.5 0 0.8-1.1 5.8-2.5 11-1.4 5.2-3.6 13.5-4.8 18.5-1.3 4.9-2.6 11-3 13.5-0.5 2.5-1.8 7.9-3 12-1.2 4.1-2.3 8.8-2.5 10.5-0.1 1.6-1.3 6.4-2.4 10.5-1.2 4.1-2.6 9.5-3 12-0.5 2.5-1.8 8.5-3.1 13.5-1.2 4.9-3.5 13.9-5.1 20-1.6 6-2.9 12.5-2.9 14.2 0 3.1 0.2 3.3 4.2 3.9 2.4 0.3 8.3 1.6 13.3 2.9 4.9 1.2 12.5 3.1 16.7 4.1 4.2 1 7.9 1.7 8.2 1.4 0.3-0.3 1.4-3.7 2.6-7.5 1.1-3.9 2.2-8.6 2.5-10.5 0.3-1.9 1.7-8 3.1-13.5 1.4-5.5 3.6-14.3 4.9-19.5 1.3-5.2 3.1-12.7 4-16.5 0.9-3.9 2.1-9.3 2.7-12 0.6-2.8 2.3-9.7 3.9-15.5 1.6-5.8 2.9-11.3 2.9-12.3 0-0.9 1.1-5.9 2.4-11 1.4-5 3.7-13.9 5.1-19.7 1.4-5.8 2.8-11.9 3.1-13.5 0.3-1.7 1.5-7.1 2.8-12 1.3-5 3.5-14.2 5-20.5 1.5-6.3 3.9-16 5.3-21.5 1.4-5.5 2.6-10.9 2.7-12 0.2-1.1 1.5-7 3-13 1.5-6.1 3.8-15.1 5.2-20 1.3-5 2.4-9.8 2.4-10.8 0-0.9 1.1-5.6 2.6-10.5 1.4-4.8 2.7-10.1 2.8-11.7 0.2-1.7 1.3-6.4 2.5-10.5 1.2-4.1 2.6-9.5 3-12 0.4-2.5 1.8-8.6 3.1-13.5 1.2-5 3.3-13.3 4.7-18.5 1.3-5.2 2.5-10.6 2.7-12 0.2-1.4 1.6-7.5 3.1-13.5 1.5-6.1 3.8-15.2 5.1-20.3 1.3-5 2.4-9.9 2.4-10.7 0-0.8 1.1-5.4 2.5-10.3 1.3-4.8 2.6-10.1 2.9-11.7 0.3-1.7 1.7-7.7 3.1-13.5 1.4-5.8 3.7-14.8 5-20 1.2-5.2 3.1-12.7 4-16.5 1-3.9 2.2-9.3 2.8-12 0.5-2.8 2.1-9.1 3.4-14 1.4-5 2.8-11 3.3-13.5 0.4-2.5 1.7-8.6 3-13.5 1.2-5 3.3-13.1 4.6-18 1.3-5 2.6-10.6 2.9-12.5 0.3-1.9 0.9-4.9 1.4-6.5 0.4-1.7 0.6-3.6 0.4-4.3-0.2-0.6-1.4-1.2-2.8-1.2-1.4 0-6.4-1.1-11.3-2.4-4.8-1.4-12.1-3.2-16.2-4.1-4.1-0.9-8.6-1.8-10-2.1-2.4-0.5-2.6-0.2-5.5 10.3z"/><path class="b" d="m480.5 134c-6.1 0.4-15.7 1.5-21.5 2.4-5.8 1-15 2.8-20.5 4.2-5.5 1.4-10.2 2.8-10.5 3.2-0.3 0.4-5 2.2-10.5 4-5.5 1.8-13.4 5-17.5 7-4.1 2.1-11.1 5.8-15.5 8.3-4.4 2.4-11.8 7.2-16.5 10.5-4.7 3.4-12.8 9.9-18 14.6-5.2 4.6-13.5 13.1-18.4 18.9-4.9 5.7-10.7 13.1-12.7 16.4-2.1 3.3-4.7 7.1-5.7 8.5-1.1 1.4-4.3 7.7-7.2 14-2.8 6.3-6 13.3-7.1 15.5-1 2.2-2.8 7.1-3.8 11-1.1 3.9-2.7 10.6-3.6 15-0.8 4.4-2 13.9-2.5 21-0.7 8.6-0.7 17.4 0 26 0.5 7.1 1.7 16.6 2.5 21 0.8 4.4 2.7 12.1 4.2 17 1.4 4.9 3.2 9.6 4 10.3 0.7 0.6 1.3 1.8 1.3 2.5 0 0.6 1.1 3.9 2.6 7.2 1.4 3.3 3.9 8.7 5.6 12 1.6 3.3 3.6 6.3 4.4 6.8 0.8 0.4 1.4 1.1 1.4 1.7 0 0.6 1.9 3.8 4.2 7.3 2.3 3.4 8.1 10.7 12.9 16.2 4.7 5.5 12.1 13.1 16.4 17 4.3 3.9 12.2 10.3 17.4 14.2 5.3 4 15.9 10.6 23.6 14.7 7.7 4.1 18.9 9.3 25 11.5 6.1 2.3 11.8 4.6 12.7 5.1 1 0.6 6.2 2.1 11.5 3.4 5.4 1.4 14.1 3.2 19.3 4 5.2 0.8 14 1.8 19.5 2.1 5.5 0.3 11.7 0.8 13.7 1l3.8 0.5v-50c-22.1 0-31.6-0.5-35.5-1.1-3.9-0.5-10.4-1.8-14.5-2.8-4.1-1-11.1-3.5-15.5-5.6-4.4-2-10.5-4.9-13.5-6.3-3-1.4-9.8-5.8-15-9.8-5.2-3.9-13.1-10.9-17.4-15.5-4.4-4.6-9.6-10.6-11.6-13.4-2.1-2.7-5.2-7.7-7-11-1.7-3.3-3.8-6.7-4.5-7.5-0.7-0.8-2.6-4.9-4.3-9-1.6-4.1-4.1-11.8-5.5-17-1.4-5.2-2.9-11.7-3.3-14.5-0.3-2.7-1.2-5.6-1.8-6.4-0.7-0.9-1.1-7.2-1.1-18.1 0-10.9 0.4-17.2 1.1-18.1 0.6-0.8 1.4-3.6 1.8-6.4 0.4-2.7 1.9-9.3 3.3-14.5 1.4-5.2 3.8-12.6 5.3-16.5 1.5-3.9 4.2-9.1 5.9-11.7 1.7-2.7 3.1-5.1 3.1-5.5 0-0.5 2.1-3.9 4.8-7.8 2.7-3.8 8.7-11 13.3-15.9 4.6-4.9 12.5-11.9 17.4-15.5 4.9-3.7 10.1-7.4 11.5-8.3 1.4-0.8 7-3.5 12.5-5.8 5.5-2.3 10.4-4.6 11-5.1 0.6-0.4 5.7-2 11.5-3.4 8.7-2.2 13.8-2.8 29.3-3.3l18.7-0.7c0-48.7-0.1-50.5-1.8-50.4-0.9 0.1-6.6 0.5-12.7 0.9zm24.5 146.5v27.5h253v-55h-253zm7.1 190.8c0 71.6 0.2 129.6 0.5 128.9 0.2-0.6 0.9-1.2 1.4-1.2 0.5 0 4.6-2.5 9-5.5 4.4-3 8.3-5.5 8.7-5.5 0.5 0 2.2-1.1 3.8-2.4 1.6-1.4 7.4-5.4 12.7-9 5.4-3.7 10.1-6.6 10.5-6.6 0.5 0 1.8-0.9 3-2l2.3-2v-173h139.5c4.2-4.3 5.5-6 5.5-6.5-0.1-0.6 1.8-2.5 4-4.3 2.2-1.7 4-3.9 4-4.7 0-0.8 1.6-2.7 3.5-4.3 1.9-1.5 3.5-3 3.5-3.5 0-0.4 4.8-6.2 10.7-13 5.9-6.7 11.4-13 12.3-14 1.4-1.7-3.4-1.8-116.8-1.7h-118.2z"/></svg>