<svg version="1.2" xmlns="http://www.w3.org/2000/svg" viewBox="0 0 282 205" width="282" height="205"><style>.a{fill:#8dc63f}</style><path class="a" d="m165.1 25.8c-0.5 0.9-11.8 25.3-25.1 54.2-13.4 28.9-29.4 63.8-35.7 77.5-6.2 13.7-11.3 25.6-11.3 26.2 0 1 3.1 1.3 12 1.3h12c5.2-11.2 19.1-40.8 34.3-73 15.1-32.2 30.5-64.7 34.1-72.3 3.6-7.5 6.4-14.2 6.1-14.7-0.3-0.6-5.7-1-13-1-10.8 0-12.6 0.2-13.4 1.7zm-105.9 35c-3.3 3.2-13.7 14.1-23.2 24.3-9.4 10.2-17.5 19.3-18.1 20.2-0.7 1.5 0.9 3.8 8.4 12 5 5.7 15.7 17 23.6 25.3 7.9 8.2 14.8 15.1 15.5 15.3 0.6 0.1 4.4-2.9 8.4-6.8l7.2-7c-30-31.2-34-36-33.8-37.7 0.2-1.2 7.8-10 17.3-19.9l17-17.7c-11.6-10.7-15.3-13.7-15.6-13.7-0.4 0-3.4 2.6-6.7 5.7zm151.4 1l-6.8 6.8c26.1 27.6 34.1 36.4 34.6 37.3 0.6 1.3-0.5 3-4.5 7.2-3 3-10.9 11.1-17.6 18l-12.3 12.5 15 15c14-13.9 24.5-24.9 32.3-33.4 7.8-8.4 14.8-16.2 15.5-17.2 1.1-1.7 0.2-3-7.9-12.2-5.1-5.6-16-17.1-24.3-25.5-8.3-8.3-15.6-15.2-16.1-15.2-0.6 0-4.1 3-7.9 6.7z"/></svg>