<svg version="1.2" xmlns="http://www.w3.org/2000/svg" viewBox="0 0 137 87" width="137" height="87"><style>.a{opacity:1;fill:#fa781f}.b{opacity:1;fill:#6088fa}.c{opacity:1;fill:#18c652}.d{opacity:1;fill:#e52a4d}.e{opacity:.8;fill:#c5cddb}.f{opacity:.5;fill:none;stroke:#000;stroke-miterlimit:100}</style><path class="a" d="m3 3v-3h28l1 1 16 53 3 9 1 3v2l2 4 1 4 2 11h-29l-5-16-3-10-2-6v-1l-2-7-2-7-2-3z"/><path class="b" d="m54 1l1-1h29l26 87h-30v-1-1h-1l-9-33-2 2 2-5-16-47z"/><path class="c" d="m106 1l1-1h28v1 2l-1 3-12 41-1 3-10 31-14-47v-3l3-8v-3l5-16z"/><path class="d" d="m52 59l-8-26 10-31 16 47-2 5-4 14-1 3-2 6-1 3-2-1v-1l-1-3-1-3-1-3-2-7z"/><path fill-rule="evenodd" class="e" d="m3 3l-1-3h1zm28-3h1v1h-1zm23 0h1v1h-1zm52 0h1v1h-1zm29 0h1v1h-1zm-38 31v-6l3-2zm0 3l-2-2 2-1zm-71 53l-3-16 5 16zm31 0l-2-11 4 11zm3-7l-1 2-1-3zm19 7v-2h1v2z"/><path class="c" d="m80 85h1v1h-1z"/><path fill-rule="evenodd" class="f" d="m48 54l4 12v2l2 4 1 4 4 11h-31l-5-16-3-10-2-6v-1l-4-14-2-3-9-34-1-3h29v1h1zm36-54l26 87h-30l-1-2v2h1l-1-2-9-33-2 2-4 14-4 12-1 2-1-3v-1l-3-9-2-7-1-3-8-26 10-31v-1h1v-1zm51 3l-1 3-12 41-1 3-10 31-14-47-2-2 2-1 3-8-3 2v6l3-8v-3l5-16 1-3h1v-1h29v1h-1zm-103-2l-1-1h1zm23-1l-1 1v-1zm52 0l-1 1v-1zm-81 87h2l-5-16z"/></svg>